<?xml version="1.0" encoding="UTF-8" standalone="no"?>
<!DOCTYPE svg PUBLIC "-//W3C//DTD SVG 1.1//EN"
 "http://www.w3.org/Graphics/SVG/1.1/DTD/svg11.dtd">
<!-- Generated by graphviz version 5.0.0 (20220707.1540)
 -->
<!-- Title: dependencies Pages: 1 -->
<svg width="642pt" height="247pt"
 viewBox="0.00 0.00 642.00 246.80" xmlns="http://www.w3.org/2000/svg" xmlns:xlink="http://www.w3.org/1999/xlink">
<g id="graph0" class="graph" transform="scale(1 1) rotate(0) translate(4 242.8)">
<title>dependencies</title>
<polygon fill="white" stroke="transparent" points="-4,4 -4,-242.8 638,-242.8 638,4 -4,4"/>
<text text-anchor="middle" x="317" y="-8.2" font-family="sans-serif" font-size="14.00">dependencies</text>
<g id="clust1" class="cluster">
<title>cluster_LoggerModule</title>
<polygon fill="none" stroke="black" stroke-dasharray="1,5" points="8,-32.8 8,-230.8 626,-230.8 626,-32.8 8,-32.8"/>
</g>
<g id="clust6" class="cluster">
<title>cluster_LoggerModule_providers</title>
<polygon fill="none" stroke="black" points="16,-40.8 16,-92.8 618,-92.8 618,-40.8 16,-40.8"/>
</g>
<g id="clust4" class="cluster">
<title>cluster_LoggerModule_exports</title>
<polygon fill="none" stroke="black" points="261,-170.8 261,-222.8 379,-222.8 379,-170.8 261,-170.8"/>
</g>
<!-- LoggerService  -->
<g id="node1" class="node">
<title>LoggerService </title>
<polygon fill="#fb8072" stroke="black" points="370.91,-214.8 269.09,-214.8 269.09,-178.8 370.91,-178.8 370.91,-214.8"/>
<text text-anchor="middle" x="320" y="-192.6" font-family="Times,serif" font-size="14.00">LoggerService </text>
</g>
<!-- LoggerModule -->
<g id="node2" class="node">
<title>LoggerModule</title>
<polygon fill="#8dd3c7" stroke="black" points="369.98,-149.8 366.98,-153.8 345.98,-153.8 342.98,-149.8 270.02,-149.8 270.02,-113.8 369.98,-113.8 369.98,-149.8"/>
<text text-anchor="middle" x="320" y="-127.6" font-family="Times,serif" font-size="14.00">LoggerModule</text>
</g>
<!-- LoggerModule&#45;&gt;LoggerService  -->
<g id="edge1" class="edge">
<title>LoggerModule&#45;&gt;LoggerService </title>
<path fill="none" stroke="black" stroke-dasharray="5,2" d="M320,-149.91C320,-149.91 320,-168.79 320,-168.79"/>
<polygon fill="black" stroke="black" points="316.5,-168.79 320,-178.79 323.5,-168.79 316.5,-168.79"/>
</g>
<!-- LoggerSentryTransport -->
<g id="node3" class="node">
<title>LoggerSentryTransport</title>
<ellipse fill="#fdb462" stroke="black" cx="508" cy="-66.8" rx="101.86" ry="18"/>
<text text-anchor="middle" x="508" y="-62.6" font-family="Times,serif" font-size="14.00">LoggerSentryTransport</text>
</g>
<!-- LoggerSentryTransport&#45;&gt;LoggerModule -->
<g id="edge2" class="edge">
<title>LoggerSentryTransport&#45;&gt;LoggerModule</title>
<path fill="none" stroke="black" d="M508,-84.91C508,-104.14 508,-131.8 508,-131.8 508,-131.8 380.38,-131.8 380.38,-131.8"/>
<polygon fill="black" stroke="black" points="380.38,-128.3 370.38,-131.8 380.38,-135.3 380.38,-128.3"/>
</g>
<!-- LoggerService -->
<g id="node4" class="node">
<title>LoggerService</title>
<ellipse fill="#fdb462" stroke="black" cx="320" cy="-66.8" rx="67.76" ry="18"/>
<text text-anchor="middle" x="320" y="-62.6" font-family="Times,serif" font-size="14.00">LoggerService</text>
</g>
<!-- LoggerService&#45;&gt;LoggerModule -->
<g id="edge3" class="edge">
<title>LoggerService&#45;&gt;LoggerModule</title>
<path fill="none" stroke="black" d="M320,-84.91C320,-84.91 320,-103.79 320,-103.79"/>
<polygon fill="black" stroke="black" points="316.5,-103.79 320,-113.79 323.5,-103.79 316.5,-103.79"/>
</g>
<!-- LoggerTransportService -->
<g id="node5" class="node">
<title>LoggerTransportService</title>
<ellipse fill="#fdb462" stroke="black" cx="129" cy="-66.8" rx="105.35" ry="18"/>
<text text-anchor="middle" x="129" y="-62.6" font-family="Times,serif" font-size="14.00">LoggerTransportService</text>
</g>
<!-- LoggerTransportService&#45;&gt;LoggerModule -->
<g id="edge4" class="edge">
<title>LoggerTransportService&#45;&gt;LoggerModule</title>
<path fill="none" stroke="black" d="M129,-84.91C129,-104.14 129,-131.8 129,-131.8 129,-131.8 259.82,-131.8 259.82,-131.8"/>
<polygon fill="black" stroke="black" points="259.82,-135.3 269.82,-131.8 259.82,-128.3 259.82,-135.3"/>
</g>
</g>
</svg>
