<?xml version="1.0" encoding="UTF-8" standalone="no"?>
<!DOCTYPE svg PUBLIC "-//W3C//DTD SVG 1.1//EN"
 "http://www.w3.org/Graphics/SVG/1.1/DTD/svg11.dtd">
<!-- Generated by graphviz version 5.0.0 (20220707.1540)
 -->
<!-- Title: dependencies Pages: 1 -->
<svg width="960pt" height="174pt"
 viewBox="0.00 0.00 960.00 173.80" xmlns="http://www.w3.org/2000/svg" xmlns:xlink="http://www.w3.org/1999/xlink">
<g id="graph0" class="graph" transform="scale(1 1) rotate(0) translate(4 169.8)">
<title>dependencies</title>
<polygon fill="white" stroke="transparent" points="-4,4 -4,-169.8 956,-169.8 956,4 -4,4"/>
<text text-anchor="middle" x="476" y="-8.2" font-family="sans-serif" font-size="14.00">dependencies</text>
<g id="clust1" class="cluster">
<title>cluster_AuthModule</title>
<polygon fill="none" stroke="black" stroke-dasharray="1,5" points="8,-32.8 8,-157.8 944,-157.8 944,-32.8 8,-32.8"/>
</g>
<g id="clust6" class="cluster">
<title>cluster_AuthModule_providers</title>
<polygon fill="none" stroke="black" points="154,-40.8 154,-92.8 936,-92.8 936,-40.8 154,-40.8"/>
</g>
<g id="clust3" class="cluster">
<title>cluster_AuthModule_imports</title>
<polygon fill="none" stroke="black" points="16,-40.8 16,-92.8 146,-92.8 146,-40.8 16,-40.8"/>
</g>
<!-- FederatedModule -->
<g id="node1" class="node">
<title>FederatedModule</title>
<polygon fill="#8dd3c7" stroke="black" points="138.25,-84.8 135.25,-88.8 114.25,-88.8 111.25,-84.8 23.75,-84.8 23.75,-48.8 138.25,-48.8 138.25,-84.8"/>
<text text-anchor="middle" x="81" y="-62.6" font-family="Times,serif" font-size="14.00">FederatedModule</text>
</g>
<!-- AuthModule -->
<g id="node2" class="node">
<title>AuthModule</title>
<polygon fill="#8dd3c7" stroke="black" points="505.55,-149.8 502.55,-153.8 481.55,-153.8 478.55,-149.8 418.45,-149.8 418.45,-113.8 505.55,-113.8 505.55,-149.8"/>
<text text-anchor="middle" x="462" y="-127.6" font-family="Times,serif" font-size="14.00">AuthModule</text>
</g>
<!-- FederatedModule&#45;&gt;AuthModule -->
<g id="edge1" class="edge">
<title>FederatedModule&#45;&gt;AuthModule</title>
<path fill="none" stroke="black" d="M81,-85.08C81,-106.12 81,-137.8 81,-137.8 81,-137.8 408.29,-137.8 408.29,-137.8"/>
<polygon fill="black" stroke="black" points="408.29,-141.3 418.29,-137.8 408.29,-134.3 408.29,-141.3"/>
</g>
<!-- AuthGithubStrategy -->
<g id="node3" class="node">
<title>AuthGithubStrategy</title>
<ellipse fill="#fdb462" stroke="black" cx="839" cy="-66.8" rx="89.22" ry="18"/>
<text text-anchor="middle" x="839" y="-62.6" font-family="Times,serif" font-size="14.00">AuthGithubStrategy</text>
</g>
<!-- AuthGithubStrategy&#45;&gt;AuthModule -->
<g id="edge2" class="edge">
<title>AuthGithubStrategy&#45;&gt;AuthModule</title>
<path fill="none" stroke="black" d="M839,-85.08C839,-106.12 839,-137.8 839,-137.8 839,-137.8 515.61,-137.8 515.61,-137.8"/>
<polygon fill="black" stroke="black" points="515.62,-134.3 505.61,-137.8 515.61,-141.3 515.62,-134.3"/>
</g>
<!-- AuthService -->
<g id="node4" class="node">
<title>AuthService</title>
<ellipse fill="#fdb462" stroke="black" cx="672" cy="-66.8" rx="59.11" ry="18"/>
<text text-anchor="middle" x="672" y="-62.6" font-family="Times,serif" font-size="14.00">AuthService</text>
</g>
<!-- AuthService&#45;&gt;AuthModule -->
<g id="edge3" class="edge">
<title>AuthService&#45;&gt;AuthModule</title>
<path fill="none" stroke="black" d="M672,-84.82C672,-102.17 672,-125.8 672,-125.8 672,-125.8 515.77,-125.8 515.77,-125.8"/>
<polygon fill="black" stroke="black" points="515.77,-122.3 505.77,-125.8 515.77,-129.3 515.77,-122.3"/>
</g>
<!-- JwtStrategy -->
<g id="node5" class="node">
<title>JwtStrategy</title>
<ellipse fill="#fdb462" stroke="black" cx="538" cy="-66.8" rx="56.77" ry="18"/>
<text text-anchor="middle" x="538" y="-62.6" font-family="Times,serif" font-size="14.00">JwtStrategy</text>
</g>
<!-- JwtStrategy&#45;&gt;AuthModule -->
<g id="edge4" class="edge">
<title>JwtStrategy&#45;&gt;AuthModule</title>
<path fill="none" stroke="black" d="M493.57,-78.12C493.57,-78.12 493.57,-103.74 493.57,-103.74"/>
<polygon fill="black" stroke="black" points="490.07,-103.74 493.57,-113.74 497.07,-103.74 490.07,-103.74"/>
</g>
<!-- LocalAuthGuard -->
<g id="node6" class="node">
<title>LocalAuthGuard</title>
<ellipse fill="#fdb462" stroke="black" cx="387" cy="-66.8" rx="76.43" ry="18"/>
<text text-anchor="middle" x="387" y="-62.6" font-family="Times,serif" font-size="14.00">LocalAuthGuard</text>
</g>
<!-- LocalAuthGuard&#45;&gt;AuthModule -->
<g id="edge5" class="edge">
<title>LocalAuthGuard&#45;&gt;AuthModule</title>
<path fill="none" stroke="black" d="M440.85,-79.64C440.85,-79.64 440.85,-103.32 440.85,-103.32"/>
<polygon fill="black" stroke="black" points="437.35,-103.32 440.85,-113.32 444.35,-103.32 437.35,-103.32"/>
</g>
<!-- LocalStrategy -->
<g id="node7" class="node">
<title>LocalStrategy</title>
<ellipse fill="#fdb462" stroke="black" cx="227" cy="-66.8" rx="65.4" ry="18"/>
<text text-anchor="middle" x="227" y="-62.6" font-family="Times,serif" font-size="14.00">LocalStrategy</text>
</g>
<!-- LocalStrategy&#45;&gt;AuthModule -->
<g id="edge6" class="edge">
<title>LocalStrategy&#45;&gt;AuthModule</title>
<path fill="none" stroke="black" d="M227,-84.82C227,-102.17 227,-125.8 227,-125.8 227,-125.8 408.35,-125.8 408.35,-125.8"/>
<polygon fill="black" stroke="black" points="408.35,-129.3 418.35,-125.8 408.35,-122.3 408.35,-129.3"/>
</g>
</g>
</svg>
