<?xml version="1.0" encoding="UTF-8" standalone="no"?>
<!DOCTYPE svg PUBLIC "-//W3C//DTD SVG 1.1//EN"
 "http://www.w3.org/Graphics/SVG/1.1/DTD/svg11.dtd">
<!-- Generated by graphviz version 5.0.0 (20220707.1540)
 -->
<!-- Title: dependencies Pages: 1 -->
<svg width="164pt" height="174pt"
 viewBox="0.00 0.00 164.00 173.80" xmlns="http://www.w3.org/2000/svg" xmlns:xlink="http://www.w3.org/1999/xlink">
<g id="graph0" class="graph" transform="scale(1 1) rotate(0) translate(4 169.8)">
<title>dependencies</title>
<polygon fill="white" stroke="transparent" points="-4,4 -4,-169.8 160,-169.8 160,4 -4,4"/>
<text text-anchor="middle" x="78" y="-8.2" font-family="sans-serif" font-size="14.00">dependencies</text>
<g id="clust1" class="cluster">
<title>cluster_AppModuleFixture</title>
<polygon fill="none" stroke="black" stroke-dasharray="1,5" points="8,-32.8 8,-157.8 148,-157.8 148,-32.8 8,-32.8"/>
</g>
<g id="clust3" class="cluster">
<title>cluster_AppModuleFixture_imports</title>
<polygon fill="none" stroke="black" points="27,-40.8 27,-92.8 129,-92.8 129,-40.8 27,-40.8"/>
</g>
<!-- UserModule -->
<g id="node1" class="node">
<title>UserModule</title>
<polygon fill="#8dd3c7" stroke="black" points="120.99,-84.8 117.99,-88.8 96.99,-88.8 93.99,-84.8 35.01,-84.8 35.01,-48.8 120.99,-48.8 120.99,-84.8"/>
<text text-anchor="middle" x="78" y="-62.6" font-family="Times,serif" font-size="14.00">UserModule</text>
</g>
<!-- AppModuleFixture -->
<g id="node2" class="node">
<title>AppModuleFixture</title>
<polygon fill="#8dd3c7" stroke="black" points="140.1,-149.8 137.1,-153.8 116.1,-153.8 113.1,-149.8 15.9,-149.8 15.9,-113.8 140.1,-113.8 140.1,-149.8"/>
<text text-anchor="middle" x="78" y="-127.6" font-family="Times,serif" font-size="14.00">AppModuleFixture</text>
</g>
<!-- UserModule&#45;&gt;AppModuleFixture -->
<g id="edge1" class="edge">
<title>UserModule&#45;&gt;AppModuleFixture</title>
<path fill="none" stroke="black" d="M78,-84.91C78,-84.91 78,-103.79 78,-103.79"/>
<polygon fill="black" stroke="black" points="74.5,-103.79 78,-113.79 81.5,-103.79 74.5,-103.79"/>
</g>
</g>
</svg>
