<?xml version="1.0" encoding="UTF-8" standalone="no"?>
<!DOCTYPE svg PUBLIC "-//W3C//DTD SVG 1.1//EN"
 "http://www.w3.org/Graphics/SVG/1.1/DTD/svg11.dtd">
<!-- Generated by graphviz version 5.0.0 (20220707.1540)
 -->
<!-- Title: dependencies Pages: 1 -->
<svg width="262pt" height="247pt"
 viewBox="0.00 0.00 262.00 246.80" xmlns="http://www.w3.org/2000/svg" xmlns:xlink="http://www.w3.org/1999/xlink">
<g id="graph0" class="graph" transform="scale(1 1) rotate(0) translate(4 242.8)">
<title>dependencies</title>
<polygon fill="white" stroke="transparent" points="-4,4 -4,-242.8 258,-242.8 258,4 -4,4"/>
<text text-anchor="middle" x="127" y="-8.2" font-family="sans-serif" font-size="14.00">dependencies</text>
<g id="clust1" class="cluster">
<title>cluster_HandlebarEmailModule</title>
<polygon fill="none" stroke="black" stroke-dasharray="1,5" points="8,-32.8 8,-230.8 246,-230.8 246,-32.8 8,-32.8"/>
</g>
<g id="clust4" class="cluster">
<title>cluster_HandlebarEmailModule_exports</title>
<polygon fill="none" stroke="black" points="42,-170.8 42,-222.8 212,-222.8 212,-170.8 42,-170.8"/>
</g>
<g id="clust6" class="cluster">
<title>cluster_HandlebarEmailModule_providers</title>
<polygon fill="none" stroke="black" points="16,-40.8 16,-92.8 238,-92.8 238,-40.8 16,-40.8"/>
</g>
<!-- HandlebarEmailService  -->
<g id="node1" class="node">
<title>HandlebarEmailService </title>
<polygon fill="#fb8072" stroke="black" points="203.72,-214.8 50.28,-214.8 50.28,-178.8 203.72,-178.8 203.72,-214.8"/>
<text text-anchor="middle" x="127" y="-192.6" font-family="Times,serif" font-size="14.00">HandlebarEmailService </text>
</g>
<!-- HandlebarEmailModule -->
<g id="node2" class="node">
<title>HandlebarEmailModule</title>
<polygon fill="#8dd3c7" stroke="black" points="202.79,-149.8 199.79,-153.8 178.79,-153.8 175.79,-149.8 51.21,-149.8 51.21,-113.8 202.79,-113.8 202.79,-149.8"/>
<text text-anchor="middle" x="127" y="-127.6" font-family="Times,serif" font-size="14.00">HandlebarEmailModule</text>
</g>
<!-- HandlebarEmailModule&#45;&gt;HandlebarEmailService  -->
<g id="edge1" class="edge">
<title>HandlebarEmailModule&#45;&gt;HandlebarEmailService </title>
<path fill="none" stroke="black" stroke-dasharray="5,2" d="M127,-149.91C127,-149.91 127,-168.79 127,-168.79"/>
<polygon fill="black" stroke="black" points="123.5,-168.79 127,-178.79 130.5,-168.79 123.5,-168.79"/>
</g>
<!-- HandlebarEmailService -->
<g id="node3" class="node">
<title>HandlebarEmailService</title>
<ellipse fill="#fdb462" stroke="black" cx="127" cy="-66.8" rx="103.05" ry="18"/>
<text text-anchor="middle" x="127" y="-62.6" font-family="Times,serif" font-size="14.00">HandlebarEmailService</text>
</g>
<!-- HandlebarEmailService&#45;&gt;HandlebarEmailModule -->
<g id="edge2" class="edge">
<title>HandlebarEmailService&#45;&gt;HandlebarEmailModule</title>
<path fill="none" stroke="black" d="M127,-84.91C127,-84.91 127,-103.79 127,-103.79"/>
<polygon fill="black" stroke="black" points="123.5,-103.79 127,-113.79 130.5,-103.79 123.5,-103.79"/>
</g>
</g>
</svg>
