<?xml version="1.0" encoding="UTF-8" standalone="no"?>
<!DOCTYPE svg PUBLIC "-//W3C//DTD SVG 1.1//EN"
 "http://www.w3.org/Graphics/SVG/1.1/DTD/svg11.dtd">
<!-- Generated by graphviz version 5.0.0 (20220707.1540)
 -->
<!-- Title: dependencies Pages: 1 -->
<svg width="244pt" height="174pt"
 viewBox="0.00 0.00 244.00 173.80" xmlns="http://www.w3.org/2000/svg" xmlns:xlink="http://www.w3.org/1999/xlink">
<g id="graph0" class="graph" transform="scale(1 1) rotate(0) translate(4 169.8)">
<title>dependencies</title>
<polygon fill="white" stroke="transparent" points="-4,4 -4,-169.8 240,-169.8 240,4 -4,4"/>
<text text-anchor="middle" x="118" y="-8.2" font-family="sans-serif" font-size="14.00">dependencies</text>
<g id="clust1" class="cluster">
<title>cluster_UploadModule</title>
<polygon fill="none" stroke="black" stroke-dasharray="1,5" points="8,-32.8 8,-157.8 228,-157.8 228,-32.8 8,-32.8"/>
</g>
<g id="clust6" class="cluster">
<title>cluster_UploadModule_providers</title>
<polygon fill="none" stroke="black" points="16,-40.8 16,-92.8 220,-92.8 220,-40.8 16,-40.8"/>
</g>
<!-- awsS3UploadService -->
<g id="node1" class="node">
<title>awsS3UploadService</title>
<ellipse fill="#fdb462" stroke="black" cx="118" cy="-66.8" rx="93.78" ry="18"/>
<text text-anchor="middle" x="118" y="-62.6" font-family="Times,serif" font-size="14.00">awsS3UploadService</text>
</g>
<!-- UploadModule -->
<g id="node2" class="node">
<title>UploadModule</title>
<polygon fill="#8dd3c7" stroke="black" points="168.27,-149.8 165.27,-153.8 144.27,-153.8 141.27,-149.8 67.73,-149.8 67.73,-113.8 168.27,-113.8 168.27,-149.8"/>
<text text-anchor="middle" x="118" y="-127.6" font-family="Times,serif" font-size="14.00">UploadModule</text>
</g>
<!-- awsS3UploadService&#45;&gt;UploadModule -->
<g id="edge1" class="edge">
<title>awsS3UploadService&#45;&gt;UploadModule</title>
<path fill="none" stroke="black" d="M118,-84.91C118,-84.91 118,-103.79 118,-103.79"/>
<polygon fill="black" stroke="black" points="114.5,-103.79 118,-113.79 121.5,-103.79 114.5,-103.79"/>
</g>
</g>
</svg>
