<?xml version="1.0" encoding="UTF-8" standalone="no"?>
<!DOCTYPE svg PUBLIC "-//W3C//DTD SVG 1.1//EN"
 "http://www.w3.org/Graphics/SVG/1.1/DTD/svg11.dtd">
<!-- Generated by graphviz version 5.0.0 (20220707.1540)
 -->
<!-- Title: dependencies Pages: 1 -->
<svg width="1099pt" height="174pt"
 viewBox="0.00 0.00 1099.00 173.80" xmlns="http://www.w3.org/2000/svg" xmlns:xlink="http://www.w3.org/1999/xlink">
<g id="graph0" class="graph" transform="scale(1 1) rotate(0) translate(4 169.8)">
<title>dependencies</title>
<polygon fill="white" stroke="transparent" points="-4,4 -4,-169.8 1095,-169.8 1095,4 -4,4"/>
<text text-anchor="middle" x="545.5" y="-8.2" font-family="sans-serif" font-size="14.00">dependencies</text>
<g id="clust1" class="cluster">
<title>cluster_AppModule</title>
<polygon fill="none" stroke="black" stroke-dasharray="1,5" points="8,-32.8 8,-157.8 1083,-157.8 1083,-32.8 8,-32.8"/>
</g>
<g id="clust3" class="cluster">
<title>cluster_AppModule_imports</title>
<polygon fill="none" stroke="black" points="154,-40.8 154,-92.8 1075,-92.8 1075,-40.8 154,-40.8"/>
</g>
<g id="clust6" class="cluster">
<title>cluster_AppModule_providers</title>
<polygon fill="none" stroke="black" points="16,-40.8 16,-92.8 146,-92.8 146,-40.8 16,-40.8"/>
</g>
<!-- AuthModule -->
<g id="node1" class="node">
<title>AuthModule</title>
<polygon fill="#8dd3c7" stroke="black" points="1066.55,-84.8 1063.55,-88.8 1042.55,-88.8 1039.55,-84.8 979.45,-84.8 979.45,-48.8 1066.55,-48.8 1066.55,-84.8"/>
<text text-anchor="middle" x="1023" y="-62.6" font-family="Times,serif" font-size="14.00">AuthModule</text>
</g>
<!-- AppModule -->
<g id="node9" class="node">
<title>AppModule</title>
<polygon fill="#8dd3c7" stroke="black" points="598.66,-149.8 595.66,-153.8 574.66,-153.8 571.66,-149.8 515.34,-149.8 515.34,-113.8 598.66,-113.8 598.66,-149.8"/>
<text text-anchor="middle" x="557" y="-127.6" font-family="Times,serif" font-size="14.00">AppModule</text>
</g>
<!-- AuthModule&#45;&gt;AppModule -->
<g id="edge1" class="edge">
<title>AuthModule&#45;&gt;AppModule</title>
<path fill="none" stroke="black" d="M1023,-84.81C1023,-107.29 1023,-142.8 1023,-142.8 1023,-142.8 608.76,-142.8 608.76,-142.8"/>
<polygon fill="black" stroke="black" points="608.76,-139.3 598.76,-142.8 608.76,-146.3 608.76,-139.3"/>
</g>
<!-- EmailModule -->
<g id="node2" class="node">
<title>EmailModule</title>
<polygon fill="#8dd3c7" stroke="black" points="961.49,-84.8 958.49,-88.8 937.49,-88.8 934.49,-84.8 868.51,-84.8 868.51,-48.8 961.49,-48.8 961.49,-84.8"/>
<text text-anchor="middle" x="915" y="-62.6" font-family="Times,serif" font-size="14.00">EmailModule</text>
</g>
<!-- EmailModule&#45;&gt;AppModule -->
<g id="edge2" class="edge">
<title>EmailModule&#45;&gt;AppModule</title>
<path fill="none" stroke="black" d="M915,-84.93C915,-105.37 915,-135.8 915,-135.8 915,-135.8 608.77,-135.8 608.77,-135.8"/>
<polygon fill="black" stroke="black" points="608.77,-132.3 598.77,-135.8 608.77,-139.3 608.77,-132.3"/>
</g>
<!-- FederatedModule -->
<g id="node3" class="node">
<title>FederatedModule</title>
<polygon fill="#8dd3c7" stroke="black" points="850.25,-84.8 847.25,-88.8 826.25,-88.8 823.25,-84.8 735.75,-84.8 735.75,-48.8 850.25,-48.8 850.25,-84.8"/>
<text text-anchor="middle" x="793" y="-62.6" font-family="Times,serif" font-size="14.00">FederatedModule</text>
</g>
<!-- FederatedModule&#45;&gt;AppModule -->
<g id="edge3" class="edge">
<title>FederatedModule&#45;&gt;AppModule</title>
<path fill="none" stroke="black" d="M793,-85.07C793,-103.36 793,-128.8 793,-128.8 793,-128.8 608.92,-128.8 608.92,-128.8"/>
<polygon fill="black" stroke="black" points="608.92,-125.3 598.92,-128.8 608.92,-132.3 608.92,-125.3"/>
</g>
<!-- LoggerModule -->
<g id="node4" class="node">
<title>LoggerModule</title>
<polygon fill="#8dd3c7" stroke="black" points="717.98,-84.8 714.98,-88.8 693.98,-88.8 690.98,-84.8 618.02,-84.8 618.02,-48.8 717.98,-48.8 717.98,-84.8"/>
<text text-anchor="middle" x="668" y="-62.6" font-family="Times,serif" font-size="14.00">LoggerModule</text>
</g>
<!-- LoggerModule&#45;&gt;AppModule -->
<g id="edge4" class="edge">
<title>LoggerModule&#45;&gt;AppModule</title>
<path fill="none" stroke="black" d="M668,-84.81C668,-100.85 668,-121.8 668,-121.8 668,-121.8 608.96,-121.8 608.96,-121.8"/>
<polygon fill="black" stroke="black" points="608.96,-118.3 598.96,-121.8 608.96,-125.3 608.96,-118.3"/>
</g>
<!-- RoleModule -->
<g id="node5" class="node">
<title>RoleModule</title>
<polygon fill="#8dd3c7" stroke="black" points="599.99,-84.8 596.99,-88.8 575.99,-88.8 572.99,-84.8 514.01,-84.8 514.01,-48.8 599.99,-48.8 599.99,-84.8"/>
<text text-anchor="middle" x="557" y="-62.6" font-family="Times,serif" font-size="14.00">RoleModule</text>
</g>
<!-- RoleModule&#45;&gt;AppModule -->
<g id="edge5" class="edge">
<title>RoleModule&#45;&gt;AppModule</title>
<path fill="none" stroke="black" d="M557,-84.91C557,-84.91 557,-103.79 557,-103.79"/>
<polygon fill="black" stroke="black" points="553.5,-103.79 557,-113.79 560.5,-103.79 553.5,-103.79"/>
</g>
<!-- UploadModule -->
<g id="node6" class="node">
<title>UploadModule</title>
<polygon fill="#8dd3c7" stroke="black" points="496.27,-84.8 493.27,-88.8 472.27,-88.8 469.27,-84.8 395.73,-84.8 395.73,-48.8 496.27,-48.8 496.27,-84.8"/>
<text text-anchor="middle" x="446" y="-62.6" font-family="Times,serif" font-size="14.00">UploadModule</text>
</g>
<!-- UploadModule&#45;&gt;AppModule -->
<g id="edge6" class="edge">
<title>UploadModule&#45;&gt;AppModule</title>
<path fill="none" stroke="black" d="M446,-84.81C446,-100.85 446,-121.8 446,-121.8 446,-121.8 505.04,-121.8 505.04,-121.8"/>
<polygon fill="black" stroke="black" points="505.04,-125.3 515.04,-121.8 505.04,-118.3 505.04,-125.3"/>
</g>
<!-- UserModule -->
<g id="node7" class="node">
<title>UserModule</title>
<polygon fill="#8dd3c7" stroke="black" points="377.99,-84.8 374.99,-88.8 353.99,-88.8 350.99,-84.8 292.01,-84.8 292.01,-48.8 377.99,-48.8 377.99,-84.8"/>
<text text-anchor="middle" x="335" y="-62.6" font-family="Times,serif" font-size="14.00">UserModule</text>
</g>
<!-- UserModule&#45;&gt;AppModule -->
<g id="edge7" class="edge">
<title>UserModule&#45;&gt;AppModule</title>
<path fill="none" stroke="black" d="M335,-85.07C335,-103.36 335,-128.8 335,-128.8 335,-128.8 505.24,-128.8 505.24,-128.8"/>
<polygon fill="black" stroke="black" points="505.24,-132.3 515.24,-128.8 505.24,-125.3 505.24,-132.3"/>
</g>
<!-- UserRoleModule -->
<g id="node8" class="node">
<title>UserRoleModule</title>
<polygon fill="#8dd3c7" stroke="black" points="274.43,-84.8 271.43,-88.8 250.43,-88.8 247.43,-84.8 161.57,-84.8 161.57,-48.8 274.43,-48.8 274.43,-84.8"/>
<text text-anchor="middle" x="218" y="-62.6" font-family="Times,serif" font-size="14.00">UserRoleModule</text>
</g>
<!-- UserRoleModule&#45;&gt;AppModule -->
<g id="edge8" class="edge">
<title>UserRoleModule&#45;&gt;AppModule</title>
<path fill="none" stroke="black" d="M218,-84.93C218,-105.37 218,-135.8 218,-135.8 218,-135.8 505.09,-135.8 505.09,-135.8"/>
<polygon fill="black" stroke="black" points="505.09,-139.3 515.09,-135.8 505.09,-132.3 505.09,-139.3"/>
</g>
<!-- AppService -->
<g id="node10" class="node">
<title>AppService</title>
<ellipse fill="#fdb462" stroke="black" cx="81" cy="-66.8" rx="56.75" ry="18"/>
<text text-anchor="middle" x="81" y="-62.6" font-family="Times,serif" font-size="14.00">AppService</text>
</g>
<!-- AppService&#45;&gt;AppModule -->
<g id="edge9" class="edge">
<title>AppService&#45;&gt;AppModule</title>
<path fill="none" stroke="black" d="M81,-84.81C81,-107.29 81,-142.8 81,-142.8 81,-142.8 505.18,-142.8 505.18,-142.8"/>
<polygon fill="black" stroke="black" points="505.18,-146.3 515.18,-142.8 505.18,-139.3 505.18,-146.3"/>
</g>
</g>
</svg>
