<?xml version="1.0" encoding="UTF-8" standalone="no"?>
<!DOCTYPE svg PUBLIC "-//W3C//DTD SVG 1.1//EN"
 "http://www.w3.org/Graphics/SVG/1.1/DTD/svg11.dtd">
<!-- Generated by graphviz version 5.0.0 (20220707.1540)
 -->
<!-- Title: dependencies Pages: 1 -->
<svg width="322pt" height="247pt"
 viewBox="0.00 0.00 322.00 246.80" xmlns="http://www.w3.org/2000/svg" xmlns:xlink="http://www.w3.org/1999/xlink">
<g id="graph0" class="graph" transform="scale(1 1) rotate(0) translate(4 242.8)">
<title>dependencies</title>
<polygon fill="white" stroke="transparent" points="-4,4 -4,-242.8 318,-242.8 318,4 -4,4"/>
<text text-anchor="middle" x="157" y="-8.2" font-family="sans-serif" font-size="14.00">dependencies</text>
<g id="clust1" class="cluster">
<title>cluster_FederatedModule</title>
<polygon fill="none" stroke="black" stroke-dasharray="1,5" points="8,-32.8 8,-230.8 306,-230.8 306,-32.8 8,-32.8"/>
</g>
<g id="clust3" class="cluster">
<title>cluster_FederatedModule_imports</title>
<polygon fill="none" stroke="black" points="196,-40.8 196,-92.8 298,-92.8 298,-40.8 196,-40.8"/>
</g>
<g id="clust4" class="cluster">
<title>cluster_FederatedModule_exports</title>
<polygon fill="none" stroke="black" points="101,-170.8 101,-222.8 233,-222.8 233,-170.8 101,-170.8"/>
</g>
<g id="clust6" class="cluster">
<title>cluster_FederatedModule_providers</title>
<polygon fill="none" stroke="black" points="16,-40.8 16,-92.8 188,-92.8 188,-40.8 16,-40.8"/>
</g>
<!-- UserModule -->
<g id="node1" class="node">
<title>UserModule</title>
<polygon fill="#8dd3c7" stroke="black" points="289.99,-84.8 286.99,-88.8 265.99,-88.8 262.99,-84.8 204.01,-84.8 204.01,-48.8 289.99,-48.8 289.99,-84.8"/>
<text text-anchor="middle" x="247" y="-62.6" font-family="Times,serif" font-size="14.00">UserModule</text>
</g>
<!-- FederatedModule -->
<g id="node2" class="node">
<title>FederatedModule</title>
<polygon fill="#8dd3c7" stroke="black" points="224.25,-149.8 221.25,-153.8 200.25,-153.8 197.25,-149.8 109.75,-149.8 109.75,-113.8 224.25,-113.8 224.25,-149.8"/>
<text text-anchor="middle" x="167" y="-127.6" font-family="Times,serif" font-size="14.00">FederatedModule</text>
</g>
<!-- UserModule&#45;&gt;FederatedModule -->
<g id="edge1" class="edge">
<title>UserModule&#45;&gt;FederatedModule</title>
<path fill="none" stroke="black" d="M214.19,-84.91C214.19,-84.91 214.19,-103.79 214.19,-103.79"/>
<polygon fill="black" stroke="black" points="210.69,-103.79 214.19,-113.79 217.69,-103.79 210.69,-103.79"/>
</g>
<!-- FederatedService  -->
<g id="node3" class="node">
<title>FederatedService </title>
<polygon fill="#fb8072" stroke="black" points="225.17,-214.8 108.83,-214.8 108.83,-178.8 225.17,-178.8 225.17,-214.8"/>
<text text-anchor="middle" x="167" y="-192.6" font-family="Times,serif" font-size="14.00">FederatedService </text>
</g>
<!-- FederatedModule&#45;&gt;FederatedService  -->
<g id="edge2" class="edge">
<title>FederatedModule&#45;&gt;FederatedService </title>
<path fill="none" stroke="black" stroke-dasharray="5,2" d="M167,-149.91C167,-149.91 167,-168.79 167,-168.79"/>
<polygon fill="black" stroke="black" points="163.5,-168.79 167,-178.79 170.5,-168.79 163.5,-168.79"/>
</g>
<!-- FederatedService -->
<g id="node4" class="node">
<title>FederatedService</title>
<ellipse fill="#fdb462" stroke="black" cx="102" cy="-66.8" rx="78.13" ry="18"/>
<text text-anchor="middle" x="102" y="-62.6" font-family="Times,serif" font-size="14.00">FederatedService</text>
</g>
<!-- FederatedService&#45;&gt;FederatedModule -->
<g id="edge3" class="edge">
<title>FederatedService&#45;&gt;FederatedModule</title>
<path fill="none" stroke="black" d="M144.85,-81.88C144.85,-81.88 144.85,-103.56 144.85,-103.56"/>
<polygon fill="black" stroke="black" points="141.35,-103.56 144.85,-113.56 148.35,-103.56 141.35,-103.56"/>
</g>
</g>
</svg>
