<?xml version="1.0" encoding="UTF-8" standalone="no"?>
<!DOCTYPE svg PUBLIC "-//W3C//DTD SVG 1.1//EN"
 "http://www.w3.org/Graphics/SVG/1.1/DTD/svg11.dtd">
<!-- Generated by graphviz version 5.0.0 (20220707.1540)
 -->
<!-- Title: dependencies Pages: 1 -->
<svg width="2380pt" height="467pt"
 viewBox="0.00 0.00 2380.00 466.80" xmlns="http://www.w3.org/2000/svg" xmlns:xlink="http://www.w3.org/1999/xlink">
<g id="graph0" class="graph" transform="scale(1 1) rotate(0) translate(4 462.8)">
<title>dependencies</title>
<polygon fill="white" stroke="transparent" points="-4,4 -4,-462.8 2376,-462.8 2376,4 -4,4"/>
<text text-anchor="middle" x="1186" y="-8.2" font-family="sans-serif" font-size="14.00">dependencies</text>
<g id="clust1" class="cluster">
<title>cluster_AppModule</title>
<polygon fill="none" stroke="black" stroke-dasharray="1,5" points="409,-108.8 409,-450.8 1142,-450.8 1142,-108.8 409,-108.8"/>
</g>
<g id="clust3" class="cluster">
<title>cluster_AppModule_imports</title>
<polygon fill="none" stroke="black" points="555,-116.8 555,-385.8 1134,-385.8 1134,-116.8 555,-116.8"/>
</g>
<g id="clust6" class="cluster">
<title>cluster_AppModule_providers</title>
<polygon fill="none" stroke="black" points="417,-333.8 417,-385.8 547,-385.8 547,-333.8 417,-333.8"/>
</g>
<g id="clust7" class="cluster">
<title>cluster_AppModuleFixture</title>
<polygon fill="none" stroke="black" stroke-dasharray="1,5" points="1150,-257.8 1150,-309.8 1290,-309.8 1290,-257.8 1150,-257.8"/>
</g>
<g id="clust13" class="cluster">
<title>cluster_AuthModule</title>
<polygon fill="none" stroke="black" stroke-dasharray="1,5" points="1566,-249.8 1566,-317.8 2364,-317.8 2364,-249.8 1566,-249.8"/>
</g>
<g id="clust18" class="cluster">
<title>cluster_AuthModule_providers</title>
<polygon fill="none" stroke="black" points="1574,-257.8 1574,-309.8 2356,-309.8 2356,-257.8 1574,-257.8"/>
</g>
<g id="clust25" class="cluster">
<title>cluster_FederatedModule</title>
<polygon fill="none" stroke="black" stroke-dasharray="1,5" points="73,-325.8 73,-393.8 401,-393.8 401,-325.8 73,-325.8"/>
</g>
<g id="clust28" class="cluster">
<title>cluster_FederatedModule_exports</title>
<polygon fill="none" stroke="black" points="261,-333.8 261,-385.8 393,-385.8 393,-333.8 261,-333.8"/>
</g>
<g id="clust30" class="cluster">
<title>cluster_FederatedModule_providers</title>
<polygon fill="none" stroke="black" points="81,-333.8 81,-385.8 253,-385.8 253,-333.8 81,-333.8"/>
</g>
<g id="clust31" class="cluster">
<title>cluster_HandlebarEmailModule</title>
<polygon fill="none" stroke="black" stroke-dasharray="1,5" points="1731,-32.8 1731,-241.8 1969,-241.8 1969,-32.8 1731,-32.8"/>
</g>
<g id="clust34" class="cluster">
<title>cluster_HandlebarEmailModule_exports</title>
<polygon fill="none" stroke="black" points="1765,-181.8 1765,-233.8 1935,-233.8 1935,-181.8 1765,-181.8"/>
</g>
<g id="clust36" class="cluster">
<title>cluster_HandlebarEmailModule_providers</title>
<polygon fill="none" stroke="black" points="1739,-40.8 1739,-92.8 1961,-92.8 1961,-40.8 1739,-40.8"/>
</g>
<g id="clust37" class="cluster">
<title>cluster_LoggerModule</title>
<polygon fill="none" stroke="black" stroke-dasharray="1,5" points="8,-32.8 8,-100.8 752,-100.8 752,-32.8 8,-32.8"/>
</g>
<g id="clust40" class="cluster">
<title>cluster_LoggerModule_exports</title>
<polygon fill="none" stroke="black" points="626,-40.8 626,-92.8 744,-92.8 744,-40.8 626,-40.8"/>
</g>
<g id="clust42" class="cluster">
<title>cluster_LoggerModule_providers</title>
<polygon fill="none" stroke="black" points="16,-40.8 16,-92.8 618,-92.8 618,-40.8 16,-40.8"/>
</g>
<g id="clust43" class="cluster">
<title>cluster_RoleModule</title>
<polygon fill="none" stroke="black" stroke-dasharray="1,5" points="760,-32.8 760,-100.8 908,-100.8 908,-32.8 760,-32.8"/>
</g>
<g id="clust48" class="cluster">
<title>cluster_RoleModule_providers</title>
<polygon fill="none" stroke="black" points="768,-40.8 768,-92.8 900,-92.8 900,-40.8 768,-40.8"/>
</g>
<g id="clust49" class="cluster">
<title>cluster_UploadModule</title>
<polygon fill="none" stroke="black" stroke-dasharray="1,5" points="916,-32.8 916,-100.8 1136,-100.8 1136,-32.8 916,-32.8"/>
</g>
<g id="clust54" class="cluster">
<title>cluster_UploadModule_providers</title>
<polygon fill="none" stroke="black" points="924,-40.8 924,-92.8 1128,-92.8 1128,-40.8 924,-40.8"/>
</g>
<g id="clust55" class="cluster">
<title>cluster_UserModule</title>
<polygon fill="none" stroke="black" stroke-dasharray="1,5" points="1298,-249.8 1298,-317.8 1558,-317.8 1558,-249.8 1298,-249.8"/>
</g>
<g id="clust58" class="cluster">
<title>cluster_UserModule_exports</title>
<polygon fill="none" stroke="black" points="1446,-257.8 1446,-309.8 1550,-309.8 1550,-257.8 1446,-257.8"/>
</g>
<g id="clust60" class="cluster">
<title>cluster_UserModule_providers</title>
<polygon fill="none" stroke="black" points="1306,-257.8 1306,-309.8 1438,-309.8 1438,-257.8 1306,-257.8"/>
</g>
<g id="clust61" class="cluster">
<title>cluster_UserRoleModule</title>
<polygon fill="none" stroke="black" stroke-dasharray="1,5" points="1144,-32.8 1144,-100.8 1328,-100.8 1328,-32.8 1144,-32.8"/>
</g>
<g id="clust66" class="cluster">
<title>cluster_UserRoleModule_providers</title>
<polygon fill="none" stroke="black" points="1152,-40.8 1152,-92.8 1320,-92.8 1320,-40.8 1152,-40.8"/>
</g>
<!-- AuthModule -->
<g id="node1" class="node">
<title>AuthModule</title>
<polygon fill="#8dd3c7" stroke="black" points="970.55,-377.8 967.55,-381.8 946.55,-381.8 943.55,-377.8 883.45,-377.8 883.45,-341.8 970.55,-341.8 970.55,-377.8"/>
<text text-anchor="middle" x="927" y="-355.6" font-family="Times,serif" font-size="14.00">AuthModule</text>
</g>
<!-- AppModule -->
<g id="node9" class="node">
<title>AppModule</title>
<polygon fill="#8dd3c7" stroke="black" points="1031.66,-442.8 1028.66,-446.8 1007.66,-446.8 1004.66,-442.8 948.34,-442.8 948.34,-406.8 1031.66,-406.8 1031.66,-442.8"/>
<text text-anchor="middle" x="990" y="-420.6" font-family="Times,serif" font-size="14.00">AppModule</text>
</g>
<!-- AuthModule&#45;&gt;AppModule -->
<g id="edge1" class="edge">
<title>AuthModule&#45;&gt;AppModule</title>
<path fill="none" stroke="black" d="M959.47,-377.91C959.47,-377.91 959.47,-396.79 959.47,-396.79"/>
<polygon fill="black" stroke="black" points="955.97,-396.79 959.47,-406.79 962.97,-396.79 955.97,-396.79"/>
</g>
<!-- EmailModule -->
<g id="node2" class="node">
<title>EmailModule</title>
<polygon fill="#8dd3c7" stroke="black" points="773.49,-160.8 770.49,-164.8 749.49,-164.8 746.49,-160.8 680.51,-160.8 680.51,-124.8 773.49,-124.8 773.49,-160.8"/>
<text text-anchor="middle" x="727" y="-138.6" font-family="Times,serif" font-size="14.00">EmailModule</text>
</g>
<!-- EmailModule&#45;&gt;AppModule -->
<g id="edge2" class="edge">
<title>EmailModule&#45;&gt;AppModule</title>
<path fill="none" stroke="black" d="M727,-161.11C727,-223.18 727,-421.8 727,-421.8 727,-421.8 938.33,-421.8 938.33,-421.8"/>
<polygon fill="black" stroke="black" points="938.33,-425.3 948.33,-421.8 938.33,-418.3 938.33,-425.3"/>
</g>
<!-- FederatedModule -->
<g id="node3" class="node">
<title>FederatedModule</title>
<polygon fill="#8dd3c7" stroke="black" points="971.25,-301.8 968.25,-305.8 947.25,-305.8 944.25,-301.8 856.75,-301.8 856.75,-265.8 971.25,-265.8 971.25,-301.8"/>
<text text-anchor="middle" x="914" y="-279.6" font-family="Times,serif" font-size="14.00">FederatedModule</text>
</g>
<!-- FederatedModule&#45;&gt;AuthModule -->
<g id="edge11" class="edge">
<title>FederatedModule&#45;&gt;AuthModule</title>
<path fill="none" stroke="black" d="M927,-301.81C927,-301.81 927,-331.65 927,-331.65"/>
<polygon fill="black" stroke="black" points="923.5,-331.65 927,-341.65 930.5,-331.65 923.5,-331.65"/>
</g>
<!-- FederatedModule&#45;&gt;AppModule -->
<g id="edge3" class="edge">
<title>FederatedModule&#45;&gt;AppModule</title>
<path fill="none" stroke="black" d="M971.53,-283.8C975.15,-283.8 977.38,-283.8 977.38,-283.8 977.38,-283.8 977.38,-396.66 977.38,-396.66"/>
<polygon fill="black" stroke="black" points="973.88,-396.66 977.38,-406.66 980.88,-396.66 973.88,-396.66"/>
</g>
<!-- FederatedService  -->
<g id="node17" class="node">
<title>FederatedService </title>
<polygon fill="#fb8072" stroke="black" points="385.17,-377.8 268.83,-377.8 268.83,-341.8 385.17,-341.8 385.17,-377.8"/>
<text text-anchor="middle" x="327" y="-355.6" font-family="Times,serif" font-size="14.00">FederatedService </text>
</g>
<!-- FederatedModule&#45;&gt;FederatedService  -->
<g id="edge18" class="edge">
<title>FederatedModule&#45;&gt;FederatedService </title>
<path fill="none" stroke="black" stroke-dasharray="5,2" d="M856.56,-289.8C705.08,-289.8 306.34,-289.8 306.34,-289.8 306.34,-289.8 306.34,-331.77 306.34,-331.77"/>
<polygon fill="black" stroke="black" points="302.84,-331.77 306.34,-341.77 309.84,-331.77 302.84,-331.77"/>
</g>
<!-- LoggerModule -->
<g id="node4" class="node">
<title>LoggerModule</title>
<polygon fill="#8dd3c7" stroke="black" points="662.98,-160.8 659.98,-164.8 638.98,-164.8 635.98,-160.8 563.02,-160.8 563.02,-124.8 662.98,-124.8 662.98,-160.8"/>
<text text-anchor="middle" x="613" y="-138.6" font-family="Times,serif" font-size="14.00">LoggerModule</text>
</g>
<!-- UserModule -->
<g id="node7" class="node">
<title>UserModule</title>
<polygon fill="#8dd3c7" stroke="black" points="963.99,-225.8 960.99,-229.8 939.99,-229.8 936.99,-225.8 878.01,-225.8 878.01,-189.8 963.99,-189.8 963.99,-225.8"/>
<text text-anchor="middle" x="921" y="-203.6" font-family="Times,serif" font-size="14.00">UserModule</text>
</g>
<!-- LoggerModule&#45;&gt;UserModule -->
<g id="edge28" class="edge">
<title>LoggerModule&#45;&gt;UserModule</title>
<path fill="none" stroke="black" d="M629.66,-160.91C629.66,-180.14 629.66,-207.8 629.66,-207.8 629.66,-207.8 868.01,-207.8 868.01,-207.8"/>
<polygon fill="black" stroke="black" points="868.01,-211.3 878.01,-207.8 868.01,-204.3 868.01,-211.3"/>
</g>
<!-- LoggerModule&#45;&gt;AppModule -->
<g id="edge4" class="edge">
<title>LoggerModule&#45;&gt;AppModule</title>
<path fill="none" stroke="black" d="M596.34,-161.13C596.34,-224.25 596.34,-428.8 596.34,-428.8 596.34,-428.8 938.24,-428.8 938.24,-428.8"/>
<polygon fill="black" stroke="black" points="938.24,-432.3 948.24,-428.8 938.24,-425.3 938.24,-432.3"/>
</g>
<!-- LoggerService  -->
<g id="node22" class="node">
<title>LoggerService </title>
<polygon fill="#fb8072" stroke="black" points="735.91,-84.8 634.09,-84.8 634.09,-48.8 735.91,-48.8 735.91,-84.8"/>
<text text-anchor="middle" x="685" y="-62.6" font-family="Times,serif" font-size="14.00">LoggerService </text>
</g>
<!-- LoggerModule&#45;&gt;LoggerService  -->
<g id="edge22" class="edge">
<title>LoggerModule&#45;&gt;LoggerService </title>
<path fill="none" stroke="black" stroke-dasharray="5,2" d="M648.52,-124.79C648.52,-124.79 648.52,-94.95 648.52,-94.95"/>
<polygon fill="black" stroke="black" points="652.02,-94.95 648.52,-84.95 645.02,-94.95 652.02,-94.95"/>
</g>
<!-- RoleModule -->
<g id="node5" class="node">
<title>RoleModule</title>
<polygon fill="#8dd3c7" stroke="black" points="876.99,-160.8 873.99,-164.8 852.99,-164.8 849.99,-160.8 791.01,-160.8 791.01,-124.8 876.99,-124.8 876.99,-160.8"/>
<text text-anchor="middle" x="834" y="-138.6" font-family="Times,serif" font-size="14.00">RoleModule</text>
</g>
<!-- RoleModule&#45;&gt;AppModule -->
<g id="edge5" class="edge">
<title>RoleModule&#45;&gt;AppModule</title>
<path fill="none" stroke="black" d="M823.82,-161.07C823.82,-222.05 823.82,-414.8 823.82,-414.8 823.82,-414.8 938.06,-414.8 938.06,-414.8"/>
<polygon fill="black" stroke="black" points="938.06,-418.3 948.06,-414.8 938.06,-411.3 938.06,-418.3"/>
</g>
<!-- UploadModule -->
<g id="node6" class="node">
<title>UploadModule</title>
<polygon fill="#8dd3c7" stroke="black" points="995.27,-160.8 992.27,-164.8 971.27,-164.8 968.27,-160.8 894.73,-160.8 894.73,-124.8 995.27,-124.8 995.27,-160.8"/>
<text text-anchor="middle" x="945" y="-138.6" font-family="Times,serif" font-size="14.00">UploadModule</text>
</g>
<!-- UploadModule&#45;&gt;AppModule -->
<g id="edge6" class="edge">
<title>UploadModule&#45;&gt;AppModule</title>
<path fill="none" stroke="black" d="M989.38,-160.87C989.38,-160.87 989.38,-396.52 989.38,-396.52"/>
<polygon fill="black" stroke="black" points="985.88,-396.52 989.38,-406.52 992.88,-396.52 985.88,-396.52"/>
</g>
<!-- UserModule&#45;&gt;FederatedModule -->
<g id="edge17" class="edge">
<title>UserModule&#45;&gt;FederatedModule</title>
<path fill="none" stroke="black" d="M921,-225.81C921,-225.81 921,-255.65 921,-255.65"/>
<polygon fill="black" stroke="black" points="917.5,-255.65 921,-265.65 924.5,-255.65 917.5,-255.65"/>
</g>
<!-- UserModule&#45;&gt;AppModule -->
<g id="edge7" class="edge">
<title>UserModule&#45;&gt;AppModule</title>
<path fill="none" stroke="black" d="M964.32,-218.8C974.97,-218.8 983.38,-218.8 983.38,-218.8 983.38,-218.8 983.38,-396.52 983.38,-396.52"/>
<polygon fill="black" stroke="black" points="979.88,-396.52 983.38,-406.52 986.88,-396.52 979.88,-396.52"/>
</g>
<!-- AppModuleFixture -->
<g id="node11" class="node">
<title>AppModuleFixture</title>
<polygon fill="#8dd3c7" stroke="black" points="1282.1,-301.8 1279.1,-305.8 1258.1,-305.8 1255.1,-301.8 1157.9,-301.8 1157.9,-265.8 1282.1,-265.8 1282.1,-301.8"/>
<text text-anchor="middle" x="1220" y="-279.6" font-family="Times,serif" font-size="14.00">AppModuleFixture</text>
</g>
<!-- UserModule&#45;&gt;AppModuleFixture -->
<g id="edge10" class="edge">
<title>UserModule&#45;&gt;AppModuleFixture</title>
<path fill="none" stroke="black" d="M964.04,-211.8C1042.41,-211.8 1200.37,-211.8 1200.37,-211.8 1200.37,-211.8 1200.37,-255.63 1200.37,-255.63"/>
<polygon fill="black" stroke="black" points="1196.87,-255.63 1200.37,-265.63 1203.87,-255.63 1196.87,-255.63"/>
</g>
<!-- UserService  -->
<g id="node28" class="node">
<title>UserService </title>
<polygon fill="#fb8072" stroke="black" points="1541.91,-301.8 1454.09,-301.8 1454.09,-265.8 1541.91,-265.8 1541.91,-301.8"/>
<text text-anchor="middle" x="1498" y="-279.6" font-family="Times,serif" font-size="14.00">UserService </text>
</g>
<!-- UserModule&#45;&gt;UserService  -->
<g id="edge29" class="edge">
<title>UserModule&#45;&gt;UserService </title>
<path fill="none" stroke="black" stroke-dasharray="5,2" d="M964.37,-197.8C1098.56,-197.8 1498,-197.8 1498,-197.8 1498,-197.8 1498,-255.56 1498,-255.56"/>
<polygon fill="black" stroke="black" points="1494.5,-255.56 1498,-265.56 1501.5,-255.56 1494.5,-255.56"/>
</g>
<!-- UserRoleModule -->
<g id="node8" class="node">
<title>UserRoleModule</title>
<polygon fill="#8dd3c7" stroke="black" points="1126.43,-160.8 1123.43,-164.8 1102.43,-164.8 1099.43,-160.8 1013.57,-160.8 1013.57,-124.8 1126.43,-124.8 1126.43,-160.8"/>
<text text-anchor="middle" x="1070" y="-138.6" font-family="Times,serif" font-size="14.00">UserRoleModule</text>
</g>
<!-- UserRoleModule&#45;&gt;AppModule -->
<g id="edge8" class="edge">
<title>UserRoleModule&#45;&gt;AppModule</title>
<path fill="none" stroke="black" d="M1022.81,-160.87C1022.81,-160.87 1022.81,-396.52 1022.81,-396.52"/>
<polygon fill="black" stroke="black" points="1019.31,-396.52 1022.81,-406.52 1026.31,-396.52 1019.31,-396.52"/>
</g>
<!-- AppService -->
<g id="node10" class="node">
<title>AppService</title>
<ellipse fill="#fdb462" stroke="black" cx="482" cy="-359.8" rx="56.75" ry="18"/>
<text text-anchor="middle" x="482" y="-355.6" font-family="Times,serif" font-size="14.00">AppService</text>
</g>
<!-- AppService&#45;&gt;AppModule -->
<g id="edge9" class="edge">
<title>AppService&#45;&gt;AppModule</title>
<path fill="none" stroke="black" d="M482,-377.81C482,-400.29 482,-435.8 482,-435.8 482,-435.8 938,-435.8 938,-435.8"/>
<polygon fill="black" stroke="black" points="938,-439.3 948,-435.8 938,-432.3 938,-439.3"/>
</g>
<!-- AuthGithubStrategy -->
<g id="node12" class="node">
<title>AuthGithubStrategy</title>
<ellipse fill="#fdb462" stroke="black" cx="2259" cy="-283.8" rx="89.22" ry="18"/>
<text text-anchor="middle" x="2259" y="-279.6" font-family="Times,serif" font-size="14.00">AuthGithubStrategy</text>
</g>
<!-- AuthGithubStrategy&#45;&gt;AuthModule -->
<g id="edge12" class="edge">
<title>AuthGithubStrategy&#45;&gt;AuthModule</title>
<path fill="none" stroke="black" d="M2259,-302.03C2259,-327.81 2259,-371.8 2259,-371.8 2259,-371.8 980.56,-371.8 980.56,-371.8"/>
<polygon fill="black" stroke="black" points="980.56,-368.3 970.56,-371.8 980.56,-375.3 980.56,-368.3"/>
</g>
<!-- AuthService -->
<g id="node13" class="node">
<title>AuthService</title>
<ellipse fill="#fdb462" stroke="black" cx="2092" cy="-283.8" rx="59.11" ry="18"/>
<text text-anchor="middle" x="2092" y="-279.6" font-family="Times,serif" font-size="14.00">AuthService</text>
</g>
<!-- AuthService&#45;&gt;AuthModule -->
<g id="edge13" class="edge">
<title>AuthService&#45;&gt;AuthModule</title>
<path fill="none" stroke="black" d="M2092,-302C2092,-326.16 2092,-365.8 2092,-365.8 2092,-365.8 980.89,-365.8 980.89,-365.8"/>
<polygon fill="black" stroke="black" points="980.89,-362.3 970.89,-365.8 980.89,-369.3 980.89,-362.3"/>
</g>
<!-- JwtStrategy -->
<g id="node14" class="node">
<title>JwtStrategy</title>
<ellipse fill="#fdb462" stroke="black" cx="1958" cy="-283.8" rx="56.77" ry="18"/>
<text text-anchor="middle" x="1958" y="-279.6" font-family="Times,serif" font-size="14.00">JwtStrategy</text>
</g>
<!-- JwtStrategy&#45;&gt;AuthModule -->
<g id="edge14" class="edge">
<title>JwtStrategy&#45;&gt;AuthModule</title>
<path fill="none" stroke="black" d="M1958,-301.81C1958,-324.29 1958,-359.8 1958,-359.8 1958,-359.8 980.64,-359.8 980.64,-359.8"/>
<polygon fill="black" stroke="black" points="980.64,-356.3 970.64,-359.8 980.64,-363.3 980.64,-356.3"/>
</g>
<!-- LocalAuthGuard -->
<g id="node15" class="node">
<title>LocalAuthGuard</title>
<ellipse fill="#fdb462" stroke="black" cx="1807" cy="-283.8" rx="76.43" ry="18"/>
<text text-anchor="middle" x="1807" y="-279.6" font-family="Times,serif" font-size="14.00">LocalAuthGuard</text>
</g>
<!-- LocalAuthGuard&#45;&gt;AuthModule -->
<g id="edge15" class="edge">
<title>LocalAuthGuard&#45;&gt;AuthModule</title>
<path fill="none" stroke="black" d="M1807,-301.83C1807,-322.57 1807,-353.8 1807,-353.8 1807,-353.8 980.64,-353.8 980.64,-353.8"/>
<polygon fill="black" stroke="black" points="980.64,-350.3 970.64,-353.8 980.64,-357.3 980.64,-350.3"/>
</g>
<!-- LocalStrategy -->
<g id="node16" class="node">
<title>LocalStrategy</title>
<ellipse fill="#fdb462" stroke="black" cx="1647" cy="-283.8" rx="65.4" ry="18"/>
<text text-anchor="middle" x="1647" y="-279.6" font-family="Times,serif" font-size="14.00">LocalStrategy</text>
</g>
<!-- LocalStrategy&#45;&gt;AuthModule -->
<g id="edge16" class="edge">
<title>LocalStrategy&#45;&gt;AuthModule</title>
<path fill="none" stroke="black" d="M1647,-301.97C1647,-320.89 1647,-347.8 1647,-347.8 1647,-347.8 980.69,-347.8 980.69,-347.8"/>
<polygon fill="black" stroke="black" points="980.69,-344.3 970.69,-347.8 980.69,-351.3 980.69,-344.3"/>
</g>
<!-- FederatedService -->
<g id="node18" class="node">
<title>FederatedService</title>
<ellipse fill="#fdb462" stroke="black" cx="167" cy="-359.8" rx="78.13" ry="18"/>
<text text-anchor="middle" x="167" y="-355.6" font-family="Times,serif" font-size="14.00">FederatedService</text>
</g>
<!-- FederatedService&#45;&gt;FederatedModule -->
<g id="edge19" class="edge">
<title>FederatedService&#45;&gt;FederatedModule</title>
<path fill="none" stroke="black" d="M211.69,-344.76C211.69,-321.09 211.69,-277.8 211.69,-277.8 211.69,-277.8 846.53,-277.8 846.53,-277.8"/>
<polygon fill="black" stroke="black" points="846.53,-281.3 856.53,-277.8 846.53,-274.3 846.53,-281.3"/>
</g>
<!-- HandlebarEmailService  -->
<g id="node19" class="node">
<title>HandlebarEmailService </title>
<polygon fill="#fb8072" stroke="black" points="1926.72,-225.8 1773.28,-225.8 1773.28,-189.8 1926.72,-189.8 1926.72,-225.8"/>
<text text-anchor="middle" x="1850" y="-203.6" font-family="Times,serif" font-size="14.00">HandlebarEmailService </text>
</g>
<!-- HandlebarEmailModule -->
<g id="node20" class="node">
<title>HandlebarEmailModule</title>
<polygon fill="#8dd3c7" stroke="black" points="1925.79,-160.8 1922.79,-164.8 1901.79,-164.8 1898.79,-160.8 1774.21,-160.8 1774.21,-124.8 1925.79,-124.8 1925.79,-160.8"/>
<text text-anchor="middle" x="1850" y="-138.6" font-family="Times,serif" font-size="14.00">HandlebarEmailModule</text>
</g>
<!-- HandlebarEmailModule&#45;&gt;HandlebarEmailService  -->
<g id="edge20" class="edge">
<title>HandlebarEmailModule&#45;&gt;HandlebarEmailService </title>
<path fill="none" stroke="black" stroke-dasharray="5,2" d="M1850,-160.91C1850,-160.91 1850,-179.79 1850,-179.79"/>
<polygon fill="black" stroke="black" points="1846.5,-179.79 1850,-189.79 1853.5,-179.79 1846.5,-179.79"/>
</g>
<!-- HandlebarEmailService -->
<g id="node21" class="node">
<title>HandlebarEmailService</title>
<ellipse fill="#fdb462" stroke="black" cx="1850" cy="-66.8" rx="103.05" ry="18"/>
<text text-anchor="middle" x="1850" y="-62.6" font-family="Times,serif" font-size="14.00">HandlebarEmailService</text>
</g>
<!-- HandlebarEmailService&#45;&gt;HandlebarEmailModule -->
<g id="edge21" class="edge">
<title>HandlebarEmailService&#45;&gt;HandlebarEmailModule</title>
<path fill="none" stroke="black" d="M1850,-84.81C1850,-84.81 1850,-114.65 1850,-114.65"/>
<polygon fill="black" stroke="black" points="1846.5,-114.65 1850,-124.65 1853.5,-114.65 1846.5,-114.65"/>
</g>
<!-- LoggerSentryTransport -->
<g id="node23" class="node">
<title>LoggerSentryTransport</title>
<ellipse fill="#fdb462" stroke="black" cx="280" cy="-66.8" rx="101.86" ry="18"/>
<text text-anchor="middle" x="280" y="-62.6" font-family="Times,serif" font-size="14.00">LoggerSentryTransport</text>
</g>
<!-- LoggerSentryTransport&#45;&gt;LoggerModule -->
<g id="edge23" class="edge">
<title>LoggerSentryTransport&#45;&gt;LoggerModule</title>
<path fill="none" stroke="black" d="M344.01,-80.97C344.01,-101.42 344.01,-136.8 344.01,-136.8 344.01,-136.8 552.72,-136.8 552.72,-136.8"/>
<polygon fill="black" stroke="black" points="552.72,-140.3 562.72,-136.8 552.72,-133.3 552.72,-140.3"/>
</g>
<!-- LoggerService -->
<g id="node24" class="node">
<title>LoggerService</title>
<ellipse fill="#fdb462" stroke="black" cx="92" cy="-66.8" rx="67.76" ry="18"/>
<text text-anchor="middle" x="92" y="-62.6" font-family="Times,serif" font-size="14.00">LoggerService</text>
</g>
<!-- LoggerService&#45;&gt;LoggerModule -->
<g id="edge24" class="edge">
<title>LoggerService&#45;&gt;LoggerModule</title>
<path fill="none" stroke="black" d="M124.41,-83C124.41,-106.9 124.41,-148.8 124.41,-148.8 124.41,-148.8 553.01,-148.8 553.01,-148.8"/>
<polygon fill="black" stroke="black" points="553.01,-152.3 563.01,-148.8 553.01,-145.3 553.01,-152.3"/>
</g>
<!-- LoggerTransportService -->
<g id="node25" class="node">
<title>LoggerTransportService</title>
<ellipse fill="#fdb462" stroke="black" cx="505" cy="-66.8" rx="105.35" ry="18"/>
<text text-anchor="middle" x="505" y="-62.6" font-family="Times,serif" font-size="14.00">LoggerTransportService</text>
</g>
<!-- LoggerTransportService&#45;&gt;LoggerModule -->
<g id="edge25" class="edge">
<title>LoggerTransportService&#45;&gt;LoggerModule</title>
<path fill="none" stroke="black" d="M586.72,-78.34C586.72,-78.34 586.72,-114.63 586.72,-114.63"/>
<polygon fill="black" stroke="black" points="583.22,-114.63 586.72,-124.63 590.22,-114.63 583.22,-114.63"/>
</g>
<!-- RoleService -->
<g id="node26" class="node">
<title>RoleService</title>
<ellipse fill="#fdb462" stroke="black" cx="834" cy="-66.8" rx="58.46" ry="18"/>
<text text-anchor="middle" x="834" y="-62.6" font-family="Times,serif" font-size="14.00">RoleService</text>
</g>
<!-- RoleService&#45;&gt;RoleModule -->
<g id="edge26" class="edge">
<title>RoleService&#45;&gt;RoleModule</title>
<path fill="none" stroke="black" d="M834,-84.81C834,-84.81 834,-114.65 834,-114.65"/>
<polygon fill="black" stroke="black" points="830.5,-114.65 834,-124.65 837.5,-114.65 830.5,-114.65"/>
</g>
<!-- awsS3UploadService -->
<g id="node27" class="node">
<title>awsS3UploadService</title>
<ellipse fill="#fdb462" stroke="black" cx="1026" cy="-66.8" rx="93.78" ry="18"/>
<text text-anchor="middle" x="1026" y="-62.6" font-family="Times,serif" font-size="14.00">awsS3UploadService</text>
</g>
<!-- awsS3UploadService&#45;&gt;UploadModule -->
<g id="edge27" class="edge">
<title>awsS3UploadService&#45;&gt;UploadModule</title>
<path fill="none" stroke="black" d="M963.87,-80.39C963.87,-80.39 963.87,-114.76 963.87,-114.76"/>
<polygon fill="black" stroke="black" points="960.37,-114.76 963.87,-124.76 967.37,-114.76 960.37,-114.76"/>
</g>
<!-- UserService -->
<g id="node29" class="node">
<title>UserService</title>
<ellipse fill="#fdb462" stroke="black" cx="1372" cy="-283.8" rx="58.46" ry="18"/>
<text text-anchor="middle" x="1372" y="-279.6" font-family="Times,serif" font-size="14.00">UserService</text>
</g>
<!-- UserService&#45;&gt;UserModule -->
<g id="edge30" class="edge">
<title>UserService&#45;&gt;UserModule</title>
<path fill="none" stroke="black" d="M1372,-265.48C1372,-242.14 1372,-204.8 1372,-204.8 1372,-204.8 974.24,-204.8 974.24,-204.8"/>
<polygon fill="black" stroke="black" points="974.24,-201.3 964.24,-204.8 974.24,-208.3 974.24,-201.3"/>
</g>
<!-- UserRoleService -->
<g id="node30" class="node">
<title>UserRoleService</title>
<ellipse fill="#fdb462" stroke="black" cx="1236" cy="-66.8" rx="76.43" ry="18"/>
<text text-anchor="middle" x="1236" y="-62.6" font-family="Times,serif" font-size="14.00">UserRoleService</text>
</g>
<!-- UserRoleService&#45;&gt;UserRoleModule -->
<g id="edge31" class="edge">
<title>UserRoleService&#45;&gt;UserRoleModule</title>
<path fill="none" stroke="black" d="M1241.21,-84.81C1241.21,-107.29 1241.21,-142.8 1241.21,-142.8 1241.21,-142.8 1136.54,-142.8 1136.54,-142.8"/>
<polygon fill="black" stroke="black" points="1136.54,-139.3 1126.54,-142.8 1136.54,-146.3 1136.54,-139.3"/>
</g>
</g>
</svg>
